<?xml version="1.0" encoding="utf-8"?>
<!-- Generator: Adobe Illustrator 15.0.2, SVG Export Plug-In . SVG Version: 6.00 Build 0)  -->
<!DOCTYPE svg PUBLIC "-//W3C//DTD SVG 1.1//EN" "http://www.w3.org/Graphics/SVG/1.1/DTD/svg11.dtd">
<svg version="1.1" id="logo" xmlns="http://www.w3.org/2000/svg" xmlns:xlink="http://www.w3.org/1999/xlink" x="0px" y="0px"
	 width="600px" height="300px" viewBox="620 0 600 300" enable-background="new 620 0 600 300" xml:space="preserve">
<g id="mark">
	<path id="mark_x5F_base" fill="#5782B2" d="M249.653,132.575c-5.624-1.788-17.369-10.077-22.494-7.151
		c-10.498,5.991-15.167,35.846-10.818,47.124c1.849,4.796,11.964,10.206,16.862,11.763c4.898,1.558,16.28,2.983,20.56,0.136
		c10.063-6.695,23.494-33.765,18.384-44.719C269.653,134.38,255.277,134.363,249.653,132.575z"/>
	<path id="mark_x5F_d" fill="#F7FAFA" d="M276.463,139.606c-5.046,2.145-18.054,3.877-21.931,0c-6.883-6.883-6.883-32.054,0-38.937
		c3.877-3.877,16.892-2.161,21.931,0c7.329,3.143,8.246,12.275,8.246,19.496C284.708,127.421,283.752,136.508,276.463,139.606z
		 M266.648,111.654C258.581,116.906,258.416,106.665,266.648,111.654C268.716,112.907,264.968,113.215,266.648,111.654
		C268.367,110.057,265.393,114.308,266.648,111.654C267.902,109,266.648,114.903,266.648,111.654
		C266.648,107.231,269.119,115.169,266.648,111.654C264.169,108.128,269.49,109.804,266.648,111.654z"/>
	<path id="mark_x5F_shadow" opacity="0.13" fill="#001935" enable-background="new    " d="M267.705,151.412
		c-2.632-3.743,2.026-19.29-2.439-20.283c-9.15-2.034-26.187,15.007-28.795,24.009c-1.11,3.828,2.594,11.914,4.887,15.175
		c2.292,3.26,8.648,9.481,12.626,9.732c9.354,0.591,30.348-9.813,32.335-18.974C287.289,156.601,270.336,155.155,267.705,151.412z
		 M243.925,168.508c-3.078-1.019-4.969-9.198-4.07-12.312c2.251-7.794,17-21.724,25.04-20.641c3.69,0.498-5.247,14.506-5.885,18.174
		C257.461,162.625,252.498,171.343,243.925,168.508z"/>
</g>
<path id="o1" fill="#5782B2" d="M249.105,153.789c-4.575,2.723-16.669,2.637-21.294,0c-4.549-2.593-4.002-9.591-4.002-14.751
	c0-4.656-0.721-11.386,4.002-14.159c4.591-2.696,16.726-2.733,21.294,0c4.659,2.787,3.852,9.603,3.852,14.461
	C252.957,144.072,253.732,151.036,249.105,153.789z M239.315,138.282C244.781,138.192,239.315,143.316,239.315,138.282
	C239.315,132.971,244.726,138.336,239.315,138.282C233.869,138.229,239.315,133.147,239.315,138.282
	C239.315,143.693,233.887,138.371,239.315,138.282z"/>
<path id="o2" fill="#5782B2" d="M363.382,100.289c-12.789,7.612-46.6,7.37-59.529,0c-12.717-7.249-11.187-26.811-11.187-41.236
	c0-13.016-2.016-31.827,11.187-39.579c12.834-7.536,46.758-7.641,59.529,0c13.021,7.79,10.767,26.845,10.766,40.425
	C374.147,73.127,376.312,92.593,363.382,100.289z M336.226,49C351.505,48.75,336.226,63.074,336.226,49
	C336.226,34.154,351.352,49.15,336.226,49C321.001,48.849,336.226,34.646,336.226,49C336.226,64.128,321.053,49.248,336.226,49z"/>
<path id="d" fill="#5782B2" d="M445.22,71.526v57.447h-29.436c-7.389,13.632-11.083,26.881-11.083,40.461
	c0,13.369,3.694,26.724,11.083,40.354h54.751V71.526H445.22z M445.22,208.36c-10.711-11.75-16.148-24.698-16.148-38.842
	c0-13.789,5.438-26.914,16.148-39.368V208.36z"/>
<rect id="l" x="485.141" y="71.526" fill="#5782B2" width="24.342" height="138.263"/>
<path id="e" fill="#5782B2" d="M579.074,170.842h-30.502c0.633,8.094,2.321,14.775,5.065,20.826
	c2.743,6.053,6.578,11.33,11.504,15.832c6.473-6.262,11.116-14.565,13.933-24.909l18.26,18.365c-1.197,2.744-2.569,6.16-4.117,8.833
	h-58.155c-7.32-12.383-10.978-26.564-10.978-41.13c0-8.444,0.879-15.444,2.639-21.003c1.76-5.7,4.539-11.928,8.339-18.683h54.777
	c0.07,1.056,0.106,2.252,0.106,3.589C589.946,145.088,586.321,158.107,579.074,170.842z M565.143,130.995
	c-10.766,8.304-16.325,21.075-16.677,38.313C558.879,160.441,564.438,147.672,565.143,130.995z"/>
<rect id="l_1_" x="1105.142" y="71.527" fill="#5782B2" width="24.342" height="138.262"/>
</svg>
