<?xml version="1.0" encoding="utf-8"?>
<!-- Generator: Adobe Illustrator 15.0.2, SVG Export Plug-In . SVG Version: 6.00 Build 0)  -->
<!DOCTYPE svg PUBLIC "-//W3C//DTD SVG 1.1//EN" "http://www.w3.org/Graphics/SVG/1.1/DTD/svg11.dtd">
<svg version="1.1" id="logo" xmlns="http://www.w3.org/2000/svg" xmlns:xlink="http://www.w3.org/1999/xlink" x="0px" y="0px"
	 width="612.451px" height="266px" viewBox="0 0 612.451 266" enable-background="new 0 0 612.451 266" xml:space="preserve">
<g id="mark">
	<polygon id="mark_x5F_base" fill="#5782B2" points=" 	"/>
	<path id="mark_x5F_d" fill="#F7FAFA" d="M191.046,180.813h-58.419V77.095h58.419c14.641,15.388,21.963,32.699,21.963,51.931
		C213.009,148.356,205.688,165.62,191.046,180.813z M156.779,77.744v102.563c5.71-2.98,10.814-6.539,15.311-10.675
		c4.556-4.278,8.505-9.952,11.848-17.021c3.341-7.068,5.012-14.931,5.012-23.585c0-11.781-3.281-22.359-9.843-31.736
		C172.484,87.915,165.041,81.399,156.779,77.744z"/>
	<path id="mark_x5F_shadow" opacity="0.13" fill="#001935" enable-background="new    " d="M166.042,35.167H80.97l14.307,173.679
		l70.765,21.987l70.766-21.987l14.308-173.679H166.042z M166.045,216.242l-57.699-17.441L96.811,48.408l69.234-0.046
		C166.045,48.362,166.045,216.242,166.045,216.242z"/>
</g>
<path id="o1" fill="#5782B2" d="M303.18,180.813h-44.971c-5.635-9.516-8.452-20.255-8.452-31.153c0-9.833,2.817-19.8,8.452-29.901
	h44.971c5.422,10.101,8.133,20.281,8.133,30.54C311.312,160.293,308.602,170.82,303.18,180.813z M280.614,179.415
	c7.92-8.398,11.88-17.914,11.88-28.546c0-11.216-3.961-20.944-11.88-29.184c-8.133,8.133-12.2,17.621-12.2,28.466
	C268.415,161.58,272.481,171.335,280.614,179.415z"/>
<path id="o2" fill="#5782B2" d="M371.358,180.813h-44.973c-5.635-9.516-8.451-20.255-8.451-31.153c0-9.833,2.816-19.8,8.451-29.901
	h44.973c5.421,10.101,8.133,20.281,8.133,30.54C379.49,160.293,376.779,170.82,371.358,180.813z M348.792,179.415
	c7.92-8.398,11.881-17.914,11.881-28.546c0-11.216-3.962-20.944-11.881-29.184c-8.133,8.133-12.2,17.621-12.2,28.466
	C336.592,161.58,340.659,171.335,348.792,179.415z"/>
<path id="d" fill="#5782B2" d="M416.563,76.36v43.399h-22.237c-5.582,10.298-8.373,20.308-8.373,30.567
	c0,10.101,2.791,20.188,8.373,30.487h41.362V76.36H416.563z M416.563,179.733c-8.092-8.877-12.199-18.658-12.199-29.344
	c0-10.417,4.107-20.333,12.199-29.742V179.733z"/>
<rect id="l" x="446.723" y="76.36" fill="#5782B2" width="18.39" height="104.454"/>
<path id="e" fill="#5782B2" d="M517.687,151.39h-23.044c0.479,6.114,1.755,11.162,3.827,15.733c2.073,4.573,4.97,8.56,8.691,11.96
	c4.89-4.729,8.397-11.003,10.525-18.817l13.795,13.874c-0.905,2.073-1.941,4.654-3.111,6.674h-43.935
	c-5.529-9.355-8.292-20.069-8.292-31.073c0-6.379,0.663-11.667,1.993-15.867c1.329-4.306,3.429-9.01,6.299-14.114h41.384
	c0.052,0.797,0.079,1.702,0.079,2.711C525.899,131.933,523.161,141.769,517.687,151.39z M507.161,121.287
	c-8.133,6.273-12.333,15.921-12.598,28.944C502.43,143.532,506.629,133.885,507.161,121.287z"/>
</svg>
