<?xml version="1.0" encoding="utf-8"?>
<!-- Generator: Adobe Illustrator 15.0.2, SVG Export Plug-In . SVG Version: 6.00 Build 0)  -->
<!DOCTYPE svg PUBLIC "-//W3C//DTD SVG 1.1//EN" "http://www.w3.org/Graphics/SVG/1.1/DTD/svg11.dtd">
<svg version="1.1" id="logo" xmlns="http://www.w3.org/2000/svg" xmlns:xlink="http://www.w3.org/1999/xlink" x="0px" y="0px"
	 width="600px" height="300px" viewBox="0 0 600 300" enable-background="new 0 0 600 300" xml:space="preserve">
<path id="e" fill="#5782B2" d="M440.379,259.343c-20.064,0.669-2.883-2.061-70.031,1.951c-41.969,1.779-22.764-3.322-60.854,4.01
	c-38.106,7.337-58.751-0.891-86.029-1.783c-31.474,0.446-23.08-4.011-41.965-8.021c-23.081-5.792-50.172-4.087-90.229-0.892
	c-18.516,1.479-19.736-11.927-29.449-19.08c-45.715-33.678-45.355-121.724,0-155.486c54.285-62.015,127.785,7.985,253.93-9.523
	c52.654-7.308,106.641-7.378,141.637-2.671c35.883,4.708,65.131,43.783,70.297,64.389c9.441,37.656,59.803,47.014,37.77,75.756
	c-3.062,3.994-9.086,18.789-17.496,18.789C469.111,226.778,529.561,253.105,440.379,259.343z M413.916,110.703L413.916,110.703
	L413.916,110.703z"/>
</svg>
