<?xml version="1.0" encoding="utf-8"?>
<!-- Generator: Adobe Illustrator 15.0.2, SVG Export Plug-In . SVG Version: 6.00 Build 0)  -->
<!DOCTYPE svg PUBLIC "-//W3C//DTD SVG 1.1//EN" "http://www.w3.org/Graphics/SVG/1.1/DTD/svg11.dtd">
<svg version="1.1" id="logo" xmlns="http://www.w3.org/2000/svg" xmlns:xlink="http://www.w3.org/1999/xlink" x="0px" y="0px"
	 width="600px" height="300px" viewBox="0 0 600 300" enable-background="new 0 0 600 300" xml:space="preserve">
<g id="mark">
	<path id="mark_x5F_base" fill="#5782B2" d="M249.653,132.575c-5.624-1.788-17.369-10.077-22.494-7.151
		c-10.498,5.991-15.167,35.846-10.818,47.124c1.849,4.796,11.964,10.206,16.862,11.763c4.898,1.559,16.28,2.983,20.56,0.137
		c10.063-6.695,23.494-33.766,18.384-44.719C269.653,134.38,255.277,134.363,249.653,132.575z"/>
	<path id="mark_x5F_d" fill="#F7FAFA" d="M269.129,156.772c-5.046,2.146-18.054,3.877-21.931,0c-6.883-6.883-6.883-32.054,0-38.937
		c3.877-3.877,16.892-2.161,21.931,0c7.329,3.143,8.246,12.275,8.246,19.496C277.375,144.587,276.418,153.674,269.129,156.772z
		 M259.314,128.82C251.248,134.073,251.083,123.832,259.314,128.82C261.382,130.074,257.634,130.381,259.314,128.82
		C261.034,127.224,258.06,131.475,259.314,128.82C260.568,126.167,259.314,132.069,259.314,128.82
		C259.314,124.397,261.786,132.335,259.314,128.82C256.835,125.294,262.157,126.971,259.314,128.82z"/>
	<path id="mark_x5F_shadow" opacity="0.13" fill="#001935" enable-background="new    " d="M277.872,131.579
		c-2.632-3.743,2.026-19.29-2.439-20.283c-9.15-2.034-26.187,15.007-28.795,24.01c-1.11,3.827,2.594,11.913,4.887,15.174
		c2.292,3.261,8.648,9.481,12.626,9.732c9.354,0.591,30.348-9.812,32.335-18.975C297.456,136.769,280.502,135.321,277.872,131.579z
		 M254.091,148.675c-3.078-1.019-4.969-9.197-4.07-12.312c2.251-7.793,17-21.723,25.04-20.64c3.69,0.498-5.247,14.506-5.885,18.173
		C267.627,142.792,262.665,151.51,254.091,148.675z"/>
</g>
<path id="o1" fill="#5782B2" d="M261.772,150.456c-4.575,2.723-16.669,2.637-21.294,0c-4.549-2.594-4.002-9.591-4.002-14.751
	c0-4.656-0.721-11.386,4.002-14.159c4.591-2.696,16.726-2.733,21.294,0c4.659,2.787,3.852,9.603,3.852,14.461
	C265.624,140.739,266.399,147.703,261.772,150.456z M251.982,134.949C257.448,134.859,251.982,139.983,251.982,134.949
	C251.982,129.638,257.393,135.003,251.982,134.949C246.536,134.896,251.982,129.814,251.982,134.949
	C251.982,140.36,246.554,135.038,251.982,134.949z"/>
<path id="o2" fill="#5782B2" d="M288.589,148.59c-7.47,3.591-27.217,3.476-34.769,0c-7.428-3.42-6.534-12.647-6.534-19.453
	c0-6.14-1.178-15.013,6.534-18.67c7.496-3.555,27.31-3.605,34.769,0c7.604,3.675,6.288,12.663,6.288,19.069
	C294.876,135.777,296.141,144.959,288.589,148.59z M272.729,124.396C281.652,124.277,272.729,131.035,272.729,124.396
	C272.729,117.392,281.562,124.466,272.729,124.396C263.836,124.324,272.729,117.624,272.729,124.396
	C272.729,131.532,263.866,124.512,272.729,124.396z"/>
<path id="d" fill="#5782B2" d="M253.336,165.713c3.062-1.724,18.906,1.815,19.161-1.69c0.877-12.063-10.586-7.413-10.586-7.413
	s3.171-4.197,3.023-6.188c-0.145-1.96,0.347-4.805-3.901-5.659c-3.752-0.754-14.191-0.375-17.109,1.269
	c-7.373,4.149-3.277,14.206,4.626,17.222C249.996,163.806,251.987,166.473,253.336,165.713z M255.216,153.959
	C259.716,151.82,254.888,149.539,255.216,153.959C255.536,158.269,260.162,155.387,255.216,153.959
	C249.33,152.26,249.683,156.59,255.216,153.959z"/>
<rect id="l" x="485.141" y="71.526" fill="#5782B2" width="24.343" height="138.263"/>
<path id="e" fill="#5782B2" d="M290.788,187.684c-7.47-1.538-9.985-7.572-15.583-12.75c-5.961-5.513-10.532-13.327-16.583-10.584
	c-6.053,2.744,12.737,5.911,12.833,12.584c0.127,9.006-1.119,3.131-11.084,7.084c-10.083,4-8.311,0.47-14.674,1.665
	c-2.941,0.553-7.289-1.441-8.832-4.117c-7.262-12.595-7.205-45.526,0-58.154c7.127-12.494,25.774-3.562,40.339-3.562
	c8.445,0,16.941-2.759,22.5-0.999c5.701,1.761,10.347,16.376,11.167,24.083c1.5,14.083,9.5,17.583,6,28.333
	c-0.486,1.495-1.443,7.028-2.779,7.028C301.566,178.294,304.955,190.601,290.788,187.684z M292.798,134.88L292.798,134.88
	L292.798,134.88z"/>
<rect id="l_1_" x="1105.142" y="71.527" fill="#5782B2" width="24.343" height="138.262"/>
</svg>
