<?xml version="1.0" encoding="utf-8"?>
<!-- Generator: Adobe Illustrator 15.0.2, SVG Export Plug-In . SVG Version: 6.00 Build 0)  -->
<!DOCTYPE svg PUBLIC "-//W3C//DTD SVG 1.1//EN" "http://www.w3.org/Graphics/SVG/1.1/DTD/svg11.dtd">
<svg version="1.1" id="logo" xmlns="http://www.w3.org/2000/svg" xmlns:xlink="http://www.w3.org/1999/xlink" x="0px" y="0px"
	 width="612.451px" height="266px" viewBox="0 0 612.451 266" enable-background="new 0 0 612.451 266" xml:space="preserve">
	<g id="mark">
		<polygon id="mark_x5F_base" fill="#5782B2" points="115.652,0 0,0 19.449,236.11 115.652,266 211.855,236.11 231.305,0 	"/>
		<path id="mark_x5F_d" fill="#F7FAFA" d="M149.644,198H70.226V57h79.418c19.904,20.919,29.858,44.452,29.858,70.598
			C179.502,153.876,169.548,177.345,149.644,198z M103.059,57.882v139.431c7.763-4.052,14.701-8.889,20.814-14.512
			c6.194-5.817,11.562-13.53,16.106-23.141c4.542-9.608,6.814-20.297,6.814-32.063c0-16.015-4.46-30.396-13.381-43.144
			C124.409,71.708,114.29,62.851,103.059,57.882z"/>
		<path id="mark_x5F_shadow" opacity="0.13" fill="#001935" d="M115.652,0H0l19.449,236.11L115.652,266l96.203-29.89L231.305,0
			H115.652z M115.656,246.165l-78.439-23.711L21.535,18l94.121-0.062V246.165z"/>
	</g>
	<path id="o1" fill="#5782B2" d="M302.085,198h-61.137c-7.661-12.935-11.49-27.535-11.49-42.351c0-13.368,3.829-26.918,11.49-40.649
		h61.137c7.371,13.731,11.057,27.57,11.057,41.517C313.142,170.104,309.456,184.415,302.085,198z M271.408,196.099
		c10.767-11.417,16.151-24.353,16.151-38.807c0-15.247-5.385-28.472-16.151-39.674c-11.057,11.057-16.585,23.956-16.585,38.698
		C254.823,171.854,260.352,185.115,271.408,196.099z"/>
	<path id="o2" fill="#5782B2" d="M394.77,198h-61.137c-7.661-12.935-11.49-27.535-11.49-42.351c0-13.368,3.829-26.918,11.49-40.649
		h61.137c7.371,13.731,11.057,27.57,11.057,41.517C405.826,170.104,402.141,184.415,394.77,198z M363.893,153.667
		C374.659,142.25,363.893,168.121,363.893,153.667C363.893,138.42,374.659,164.869,363.893,153.667
		C352.836,164.724,363.893,138.925,363.893,153.667C363.893,169.205,352.836,142.684,363.893,153.667z"/>
	<path id="d" fill="#5782B2" d="M456.226,56v59h-30.232c-7.588,14-11.382,27.607-11.382,41.555c0,13.73,3.794,27.445,11.382,41.445
		h56.232V56H456.226z M456.226,196.532c-11-12.067-16.585-25.365-16.585-39.891c0-14.163,5.585-27.642,16.585-40.433V196.532z"/>
	<rect id="l" x="497.226" y="56" fill="#5782B2" width="25" height="142"/>
	<path id="e" fill="#5782B2" d="M593.698,158h-31.327c0.65,8.312,2.385,15.175,5.203,21.389c2.818,6.216,6.756,11.636,11.815,16.26
		c6.647-6.431,11.417-14.959,14.309-25.582l18.753,18.861c-1.229,2.818-2.639,6.327-4.228,9.072h-59.728
		c-7.517-12.718-11.273-27.283-11.273-42.242c0-8.672,0.902-15.861,2.71-21.571c1.806-5.854,4.661-12.249,8.563-19.187h56.259
		c0.071,1.084,0.108,2.313,0.108,3.686C604.863,131.55,601.141,144.921,593.698,158z M579.39,117.076
		c-11.057,8.528-16.767,21.645-17.127,39.349C572.957,147.319,578.666,134.203,579.39,117.076z">
		<animate>
	</path>
</svg>
