<?xml version="1.0" encoding="utf-8"?>
<!-- Generator: Adobe Illustrator 15.0.2, SVG Export Plug-In . SVG Version: 6.00 Build 0)  -->
<!DOCTYPE svg PUBLIC "-//W3C//DTD SVG 1.1//EN" "http://www.w3.org/Graphics/SVG/1.1/DTD/svg11.dtd">
<svg version="1.1" id="レイヤー_1" xmlns="http://www.w3.org/2000/svg" xmlns:xlink="http://www.w3.org/1999/xlink" x="0px"
	 y="0px" width="612.451px" height="266px" viewBox="0 0 612.451 266" enable-background="new 0 0 612.451 266"
	 xml:space="preserve">
<g>
	<polygon fill="#5782B2" points="115.652,0 0,0 19.449,236.11 115.652,266 211.855,236.11 231.305,0 	"/>
	<g>
		<g>
			<path fill="#F7FAFA" d="M149.258,197H69.84V55.868h79.418c19.904,20.938,29.858,44.493,29.858,70.664
				C179.117,152.835,169.163,176.325,149.258,197z M102.673,56.751v139.561c7.763-4.056,14.701-8.896,20.814-14.525
				c6.194-5.822,11.562-13.543,16.106-23.162c4.542-9.617,6.814-20.315,6.814-32.093c0-16.03-4.46-30.425-13.381-43.184
				C124.024,70.59,113.905,61.725,102.673,56.751z"/>
		</g>
	</g>
	<path fill="#5782B2" d="M302.085,197.725h-61.137c-7.661-12.935-11.49-26.81-11.49-41.625c0-13.368,3.829-26.918,11.49-40.649
		h61.137c7.371,13.731,11.057,27.57,11.057,41.517C313.142,170.554,309.456,184.14,302.085,197.725z M271.408,196.099
		c10.767-11.417,16.151-24.353,16.151-38.807c0-15.247-5.385-28.472-16.151-39.674c-11.057,11.057-16.585,23.956-16.585,38.698
		C254.823,171.854,260.352,185.115,271.408,196.099z"/>
	<path fill="#5782B2" d="M394.77,197.725h-61.137c-7.661-12.935-11.49-26.81-11.49-41.625c0-13.368,3.829-26.918,11.49-40.649
		h61.137c7.371,13.731,11.057,27.57,11.057,41.517C405.826,170.554,402.141,184.14,394.77,197.725z M364.093,196.099
		c10.767-11.417,16.151-24.353,16.151-38.807c0-15.247-5.385-28.472-16.151-39.674c-11.057,11.057-16.585,23.956-16.585,38.698
		C347.508,171.854,353.036,185.115,364.093,196.099z"/>
	<path fill="#5782B2" d="M593.698,158.051h-31.327c0.65,8.312,2.385,15.574,5.203,21.788c2.818,6.216,6.756,11.636,11.815,16.26
		c6.647-6.431,11.417-14.959,14.309-25.582l18.753,18.861c-1.229,2.818-2.639,5.602-4.228,8.347h-59.728
		c-7.517-12.718-11.273-26.558-11.273-41.517c0-8.672,0.902-15.861,2.71-21.571c1.806-5.854,4.661-12.249,8.563-19.187h56.259
		c0.071,1.084,0.108,2.313,0.108,3.686C604.863,132,601.141,144.972,593.698,158.051z M579.39,117.076
		c-11.057,8.528-16.767,21.645-17.127,39.349C572.957,147.319,578.666,134.203,579.39,117.076z"/>
	<path fill="#5782B2" d="M456.226,56v59h-30.232c-7.588,14-11.382,27.607-11.382,41.555c0,13.73,3.794,27.445,11.382,41.445h56.232
		V56H456.226z M456.226,196.532c-11-12.067-16.585-25.365-16.585-39.891c0-14.163,5.585-27.642,16.585-40.433V196.532z"/>
	<path opacity="0.13" fill="#001935" d="M115.652,0H0l19.449,236.11L115.652,266l96.203-29.89L231.305,0H115.652z M115.226,246.228
		l-77.794-23.773L21.857,18h93.368V246.228z"/>
	<rect x="497.226" y="56" fill="#5782B2" width="25" height="142"/>
</g>
</svg>
