<?xml version="1.0" encoding="UTF-8" standalone="no"?>
<svg width="61px" height="61px" viewBox="0 0 61 61" version="1.1" xmlns="http://www.w3.org/2000/svg" xmlns:xlink="http://www.w3.org/1999/xlink">
    <!-- Generator: Sketch 3.8.3 (29802) - http://www.bohemiancoding.com/sketch -->
    <title>Combined Shape</title>
    <desc>Created with Sketch.</desc>
    <defs></defs>
    <g id="Page-1" stroke="none" stroke-width="1" fill="none" fill-rule="evenodd">
        <path d="M30.5,61 C47.3446849,61 61,47.3446849 61,30.5 C61,13.6553151 47.3446849,0 30.5,0 C13.6553151,0 0,13.6553151 0,30.5 C0,47.3446849 13.6553151,61 30.5,61 Z M43.3830181,40.9042414 C42.9716968,41.325069 42.4849566,41.5357931 41.9227973,41.5364138 L34.6534967,41.5364138 C34.6534967,42.7113793 34.2479303,43.7144138 33.4367975,44.5455172 C32.6256647,45.3766207 31.6467322,45.7921724 30.5,45.7921724 C29.3532678,45.7921724 28.3743353,45.3766207 27.5632025,44.5455172 C26.7520697,43.7144138 26.3465033,42.7113793 26.3465033,41.5364138 L19.0772027,41.5364138 C18.5144376,41.5364138 18.0276974,41.3256897 17.6169819,40.9042414 C17.2062664,40.4827931 17.0006058,39.984069 17,39.408069 C17.5409571,38.9425517 18.0331494,38.455 18.4765767,37.9454138 C18.920004,37.4358276 19.3797873,36.7735517 19.8559265,35.9585862 C20.3320657,35.1436207 20.7349061,34.2653448 21.0644477,33.3237586 C21.3939894,32.3821724 21.6644679,31.2404138 21.8758834,29.8984828 C22.0872989,28.5565517 22.1927038,27.1156207 22.192098,25.5756897 C22.192098,23.8911379 22.82483,22.3254483 24.0902941,20.8786207 C25.3557582,19.4317931 27.0161877,18.5535172 29.0715824,18.2437931 C28.9849566,18.0333793 28.9416437,17.8173793 28.9416437,17.5957931 C28.9416437,17.1526207 29.0930874,16.7758621 29.395975,16.4655172 C29.6988625,16.1551724 30.0665679,16 30.4990913,16 C30.9316147,16 31.2993202,16.1551724 31.6022077,16.4655172 C31.9050952,16.7758621 32.056539,17.1526207 32.056539,17.5957931 C32.056539,17.8173793 32.0132261,18.0333793 31.9266003,18.2437931 C33.981995,18.5541379 35.6424244,19.4324138 36.9078885,20.8786207 C38.1733526,22.3248276 38.8060847,23.8905172 38.8060847,25.5756897 C38.8060847,27.1162414 38.9114895,28.5571724 39.1222993,29.8984828 C39.333109,31.2397931 39.6035875,32.3815517 39.9337349,33.3237586 C40.2638823,34.2659655 40.6667228,35.1442414 41.1422562,35.9585862 C41.6177896,36.772931 42.0775729,37.4352069 42.521606,37.9454138 C42.9656391,38.4556207 43.4578313,38.9431724 43.9981827,39.408069 C44,39.9846897 43.7943394,40.4834138 43.3830181,40.9042414 Z" id="Combined-Shape" fill="#737373"></path>
    </g>
</svg>