<?xml version="1.0" encoding="utf-8"?>
<!-- Generator: Adobe Illustrator 15.0.2, SVG Export Plug-In . SVG Version: 6.00 Build 0)  -->
<!DOCTYPE svg PUBLIC "-//W3C//DTD SVG 1.1//EN" "http://www.w3.org/Graphics/SVG/1.1/DTD/svg11.dtd">
<svg version="1.1" id="レイヤー_1" xmlns="http://www.w3.org/2000/svg" xmlns:xlink="http://www.w3.org/1999/xlink" x="0px"
	 y="0px" width="95px" height="41.26px" viewBox="0 0 95 41.26" enable-background="new 0 0 95 41.26" xml:space="preserve">
<g id="mark">
	<polygon id="mark_x5F_base" fill="#5782B2" points="17.939,0 0,0 3.017,36.625 17.939,41.26 32.862,36.625 35.879,0 	"/>
	<path id="mark_x5F_d" fill="#F7FAFA" d="M23.212,30.712H10.893V8.842h12.319c3.087,3.245,4.631,6.895,4.631,10.951
		C27.843,23.869,26.299,27.509,23.212,30.712z M15.986,8.979v21.627c1.204-0.628,2.28-1.378,3.229-2.251
		c0.961-0.902,1.793-2.099,2.499-3.589c0.705-1.49,1.057-3.148,1.057-4.974c0-2.484-0.692-4.715-2.076-6.692
		C19.298,11.123,17.728,9.75,15.986,8.979z"/>
	<path id="mark_x5F_shadow" opacity="0.13" fill="#001935" d="M17.939,0H0l3.017,36.625l14.923,4.636l14.922-4.636L35.879,0H17.939z
		 M17.94,38.184L5.773,34.506L3.34,2.792l14.6-0.009V38.184z"/>
</g>
<path id="o1" fill="#5782B2" d="M46.858,30.712h-9.483c-1.188-2.006-1.782-4.271-1.782-6.568c0-2.074,0.594-4.176,1.782-6.306h9.483
	c1.143,2.13,1.714,4.276,1.714,6.439C48.572,26.385,48.001,28.606,46.858,30.712z M42.099,30.417c1.67-1.771,2.505-3.777,2.505-6.02
	c0-2.364-0.835-4.416-2.505-6.153c-1.715,1.715-2.572,3.716-2.572,6.003C39.527,26.658,40.384,28.714,42.099,30.417z"/>
<path id="o2" fill="#5782B2" d="M61.234,30.712h-9.483c-1.188-2.006-1.782-4.271-1.782-6.568c0-2.074,0.594-4.176,1.782-6.306h9.483
	c1.144,2.13,1.715,4.276,1.715,6.439C62.949,26.385,62.378,28.606,61.234,30.712z M56.476,30.417
	c1.671-1.771,2.506-3.777,2.506-6.02c0-2.364-0.835-4.416-2.506-6.153c-1.715,1.715-2.572,3.716-2.572,6.003
	C53.903,26.658,54.761,28.714,56.476,30.417z"/>
<path id="d" fill="#5782B2" d="M70.768,8.687v9.152h-4.689c-1.178,2.171-1.766,4.282-1.766,6.445c0,2.13,0.588,4.258,1.766,6.429
	H74.8V8.687H70.768z M70.768,30.485c-1.707-1.871-2.573-3.935-2.573-6.188c0-2.196,0.866-4.288,2.573-6.271V30.485z"/>
<rect id="l" x="77.127" y="8.687" fill="#5782B2" width="3.878" height="22.026"/>
<path id="e" fill="#5782B2" d="M92.091,24.508h-4.859c0.102,1.289,0.37,2.354,0.808,3.317c0.438,0.965,1.048,1.805,1.833,2.522
	c1.03-0.998,1.771-2.32,2.219-3.968L95,29.305c-0.19,0.438-0.409,0.981-0.656,1.407H85.08c-1.166-1.973-1.749-4.231-1.749-6.552
	c0-1.346,0.14-2.461,0.42-3.346c0.28-0.908,0.724-1.9,1.329-2.976h8.727c0.011,0.168,0.017,0.359,0.017,0.572
	C93.823,20.405,93.245,22.479,92.091,24.508z M89.872,18.16c-1.716,1.323-2.602,3.357-2.657,6.104
	C88.874,22.851,89.76,20.817,89.872,18.16z"/>
</svg>
