<?xml version="1.0" encoding="UTF-8" standalone="no"?>
<svg width="49px" height="49px" viewBox="0 0 49 49" version="1.1" xmlns="http://www.w3.org/2000/svg" xmlns:xlink="http://www.w3.org/1999/xlink">
    <!-- Generator: Sketch 3.8.3 (29802) - http://www.bohemiancoding.com/sketch -->
    <title>Combined Shape</title>
    <desc>Created with Sketch.</desc>
    <defs></defs>
    <g id="Page-1" stroke="none" stroke-width="1" fill="none" fill-rule="evenodd">
        <path d="M0,0 L13,0 L13,13 L0,13 L0,0 Z M0,18 L13,18 L13,31 L0,31 L0,18 Z M0,36 L13,36 L13,49 L0,49 L0,36 Z M18,36 L31,36 L31,49 L18,49 L18,36 Z M36,36 L49,36 L49,49 L36,49 L36,36 Z M18,18 L31,18 L31,31 L18,31 L18,18 Z M36,18 L49,18 L49,31 L36,31 L36,18 Z M18,0 L31,0 L31,13 L18,13 L18,0 Z M36,0 L49,0 L49,13 L36,13 L36,0 Z" id="Combined-Shape" fill="#737373"></path>
    </g>
</svg>